<?xml version="1.0" encoding="UTF-8"?><svg id="Layer_1" xmlns="http://www.w3.org/2000/svg" viewBox="0 0 2028.423 1178.259"><defs><style>.cls-1{fill:#fefefe;}</style></defs><g id="DPtbUW.tif"><path class="cls-1" d="M711.432,481.379v31.972h-43.978l70.425,193.897,471.167-.204,68.102-193.693h-43.478c-.106,0-1.499-1.393-1.499-1.499v-28.974c0-.106,1.393-1.499,1.499-1.499h121.439v31.972h-44.977l-75.546,222.308,65.123,142.331c.875.616-.947,2.036-1.071,2.036h-29.985l-2.699-3.297-62.759-137.088-458.089-.299-66.158,140.684h-29.985c-.614,0-2.096-2.034-1.066-3.04,21.528-46.233,43.16-92.485,63.5-139.235l-76.927-224.4h-44.478c-.106,0-1.499-1.393-1.499-1.499v-28.974c0-.106,1.393-1.499,1.499-1.499h121.439Z"/><path class="cls-1" d="M1014.28,25.782c16.327.722,34.834,2.779,51.332,5.137,3.976.568,15.078,1.656,17.92,3.064,1.053.522,1.836.777,1.669,2.19l-74.384,612.124-73.548-.708L872.362,47.259l.624-7.542c24.719-5.046,49.609-10.803,74.838-12.926,3.624-.305,8.26-.844,11.484-1.009,16.957-.869,37.971-.752,54.972,0Z"/><path class="cls-1" d="M805.385,648.231l-166.992-518.887c50.157-36.125,108.174-60.458,167.487-77.608l86.462,596.495h-86.956Z"/><path class="cls-1" d="M1145.215,648.231h-89.955l98.432-597.548c46.602,13.66,93.305,33.749,134.366,59.609,5.566,3.505,22.005,13.358,25.596,17.368.993,1.109,1.745,1.827,1.536,3.489l-169.976,517.081Z"/><path class="cls-1" d="M1852.86,988.929v-65.942h23.488c.106,0,1.499,1.393,1.499,1.499v106.905c0,.106-1.393,1.499-1.499,1.499h-19.99l-52.474-67.94v67.94h-23.488c-.106,0-1.499-1.393-1.499-1.499v-108.404h23.488l50.475,65.942Z"/><path class="cls-1" d="M1681.722,921.266c84.158-9.476,90.17,108.044,13.7,113.607-77.698,5.653-84.185-105.671-13.7-113.607ZM1683.705,944.23c-32.956,4.769-34.566,61.55,1.188,67.231,50.343,7.999,52.052-74.935-1.188-67.231Z"/><path class="cls-1" d="M193.469,921.266c83.503-9.427,89.691,108.079,13.7,113.607-78.087,5.681-84.887-105.57-13.7-113.607ZM194.429,944.207c-36.452,6.146-32.372,73.727,13.496,67.444,39.864-5.46,34.793-75.586-13.496-67.444Z"/><path class="cls-1" d="M745.415,1016.405c-1.346,4.792-23.457,14.806-28.783,16.188-43.424,11.267-80.81-17.401-76.041-63.024,4.958-47.434,68.383-64.399,100.809-33.094l-14.133,17.34c-7.237-1.651-11.872-7.615-19.977-9.202-52.83-10.348-55.404,72.113-3.362,67.287,2.736-.254,17.499-4.211,17.499-6.486v-14.487h-23.488c-.106,0-1.499-1.393-1.499-1.499v-18.983c0-.106,1.393-1.499,1.499-1.499h47.476v47.458Z"/><path class="cls-1" d="M860.357,922.988v21.981h-58.97v20.981h50.475c.106,0,1.499,1.393,1.499,1.499v19.982c0,.106-1.393,1.499-1.499,1.499h-50.475v20.981h58.97v22.98h-83.958v-109.903h83.958Z"/><path class="cls-1" d="M1065.255,1032.89l47.437-110.976,22.418.189,46.087,110.786h-25.987l-9.986-24.488-45.006-.01-9.976,24.497h-24.987ZM1136.219,985.932l-13.981-32.968-13.006,32.968h26.986Z"/><path class="cls-1" d="M1439.067,1032.89h-25.487c-3.023-3.219-8.682-24.009-11.128-24.844-15.093.061-30.616-.816-45.457.457-3.119,8.138-5.655,17.074-10.381,24.387h-24.488l46.935-110.444c.976-.661,19.284-.87,21.532-.459,1.115.204,1.915.484,2.414,1.584l46.061,109.319ZM1394.09,985.932l-13.006-32.968c-.641-.5-1.825,1.635-2.185,2.298-4.668,8.607-8.183,21.338-11.796,30.671h26.986Z"/><path class="cls-1" d="M619.478,1032.89h-25.487c-3.023-3.219-8.682-24.009-11.128-24.844-15.093.061-30.616-.816-45.457.457-3.119,8.138-5.655,17.074-10.381,24.387h-24.488l46.957-110.421c1.183-.714,19.188-.906,21.509-.481,1.115.204,1.917.482,2.413,1.585l46.062,109.318ZM574.501,985.932l-13.006-32.968c-1.857-1.45-13.082,30.901-14.98,32.968h27.986Z"/><path class="cls-1" d="M1939.596,921.269c17.001-2.035,34.984,2.229,48.137,13.352.454,1.535-11.275,19.066-12.42,19.155-7.082-6.806-38.023-18.23-41.274-4.101-1.894,8.233,2.817,10.425,9.501,13.054,17.42,6.852,45.841,7.712,48.237,32.706,4.572,47.696-62.976,47.305-86.837,20.829-.381-2.212,11.787-14.315,13.458-17.326,8.934,5.429,17.153,11.756,28.038,12.85,8.747.879,23.819-.862,20.154-13.162-2.178-7.31-29.449-11.853-37.032-14.927-34.117-13.831-24.683-58.271,10.038-62.428Z"/><path class="cls-1" d="M67.55,921.284c19.313-2.071,38.315,2.127,52.105,16.33l-15.401,18.156c-10.176-8.094-18.404-12.937-32.037-11.836-29.037,2.344-36.929,45.11-14.784,61.808,15.483,11.674,33.604,5.921,46.803-5.86,1.22-.001,15.044,13.416,15.386,14.726.808,3.096-11.061,11.21-13.869,12.804-27.344,15.524-65.485,6.669-80.352-21.623-18.226-34.683,1.901-80.189,42.149-84.505Z"/><path class="cls-1" d="M1249.942,921.269c13.76-1.65,30.595.501,42.522,7.891,1.816,1.125,9.205,6.853,9.518,8.459.512,2.631-12.776,15.667-15.338,18.324-17.507-20.038-52.927-14.96-58.018,12.957-7.029,38.545,31.608,56.941,59.016,30.982,1.035,0,14.312,12.595,15.053,14.033.996,1.934-4.378,6.579-6.033,8.008-23.077,19.927-62.573,16.582-81.995-7.005-27.448-33.334-8.784-88.367,35.274-93.65Z"/><path class="cls-1" d="M964.805,922.988l29.474,74.933,26.997-74.933h26.986l-45.438,110.975c-3.9-.848-19.065,1.328-21.036-1.065l-43.47-109.91h26.487Z"/><path class="cls-1" d="M374.601,944.968h-32.484c-.106,0-1.499,1.393-1.499,1.499v86.423h-23.488c-.106,0-1.499-1.393-1.499-1.499v-86.423h-32.983v-21.981h90.455c.106,0,1.499,1.393,1.499,1.499v20.482Z"/><polygon class="cls-1" points="484.546 922.988 484.546 944.968 451.562 944.968 451.562 1032.89 426.575 1032.89 426.575 944.968 393.591 944.968 393.591 922.988 484.546 922.988"/><path class="cls-1" d="M1548.013,922.988v21.981h-32.484c-.106,0-1.499,1.393-1.499,1.499v86.423h-23.988v-86.423c0-.106-1.393-1.499-1.499-1.499h-32.484v-21.981h91.954Z"/><rect class="cls-1" x="1575.999" y="922.988" width="24.987" height="109.903"/><path class="cls-1" d="M969.803,1071.856c5.848.829,15.46,6.972,17.021,12.959,3.068,11.761-1.745,19.13-10.522,25.994,19.795,4.631,21.603,29.512,3.23,37.712-1.709.762-9.407,3.264-10.728,3.264h-40.48v-79.929c12.834,1.306,29.074-1.758,41.479,0ZM935.32,1107.824h31.484c1.504,0,8.465-3.638,9.895-5.096,4.819-4.915,5.621-14.388,1.025-19.806-1.055-1.244-7.676-5.071-8.92-5.071h-33.483v29.973ZM935.32,1145.79h31.484c3.428,0,10.79-3.083,13.525-5.464,8.244-7.177,6.036-20.129-4.043-23.997-1.499-.575-9.344-2.511-10.481-2.511h-30.485v31.972Z"/><path class="cls-1" d="M28.774,1118.814v32.971c-1.414.169-6.996.267-6.996-1.499v-78.431h43.478c.677,0,9.67,4.357,10.827,5.163,13.637,9.491,10.837,30.609-3.958,37.672-2.295,1.096-9.917,2.172-9.357,4.599l24.957,30.997c.041,1.868-7.238,2.201-8.532.553-4.272-3.01-22.902-32.025-24.931-32.025h-25.487ZM28.774,1112.82h31.484c.395,0,6.568-2.074,7.501-2.493,12.189-5.477,14.274-22.808,2.529-29.513-.905-.517-6.65-2.963-7.031-2.963H28.774v34.969Z"/><path class="cls-1" d="M1059.757,1071.856c7.023,1.096,16.52,8.253,18.816,15.158,5.444,16.372-6.228,27.826-21.31,31.295l24.977,33.471-7.986-.499c-3.669-3.46-23.428-32.466-25.492-32.466h-24.488v31.472c0,1.765-5.583,1.668-6.996,1.499v-79.929c12.944,1.441,30.062-1.937,42.479,0ZM1024.275,1112.82h30.485c.45,0,5.248-1.439,6.208-1.788,13.241-4.806,17.034-21.986,4.627-30.024-.879-.569-6.393-3.157-6.837-3.157h-34.483v34.969Z"/><path class="cls-1" d="M1136.975,1070.113c61.486-7.781,61.843,92.388-2.806,82.222-42.658-6.708-42.066-76.544,2.806-82.222ZM1119.58,1137.445c34.118,34.105,81.287-24.762,43.102-54.575-34.336-26.808-72.598,25.091-43.102,54.575Z"/><path class="cls-1" d="M1877.847,1138.797v-66.941h5.997v79.929l-5.57-.928-54.4-68.011v68.939c-1.414.169-6.996.267-6.996-1.499v-78.431l6.293.207c19.35,21.089,35.469,45.53,54.677,66.734Z"/><path class="cls-1" d="M1422.575,1071.856c17.595,2.73,26.83,25.648,13.528,38.501-4.632,4.476-10.555,5.21-16.003,7.952l24.958,33.471c-3.048-.186-6.669.96-9.071-1.413-3.628-3.33-22.412-31.553-24.407-31.553h-25.487v32.971h-5.997v-79.929c12.956,1.435,30.045-1.929,42.479,0ZM1386.094,1112.82h31.484c2.566,0,10.851-4.03,12.986-6.002,7.484-6.915,6.169-21.052-2.779-26.181-1.086-.623-6.447-2.786-7.208-2.786h-34.483v34.969Z"/><path class="cls-1" d="M1621.975,1138.797v-22.98h-25.987v-5.995h32.983v30.473c0,3.989-21.099,12.037-25.497,12.479-63.458,6.378-60.285-87.828-2.005-82.901,6.338.536,19.117,4.848,23.466,9.514,2.211,2.373-3.052,6.415-3.461,6.415-.685.001-7.965-6.112-11.509-7.438-31.844-11.915-55.071,20.104-43.141,49.119,9.427,22.926,36.676,23.925,55.15,11.312Z"/><path class="cls-1" d="M168.704,1071.856c.502.515-.034,5.995-1.499,5.995h-49.475v29.973h44.478c1.527,0,1.763,4.568,1.499,5.995h-45.977v31.972h50.974v5.995h-56.472c-.106,0-1.499-1.393-1.499-1.499v-78.431h57.971Z"/><path class="cls-1" d="M465.555,1071.856c.502.515-.034,5.995-1.499,5.995h-49.475v29.973h44.478c1.527,0,1.763,4.568,1.499,5.995h-45.977v31.972h50.974v5.995h-56.472c-.106,0-1.499-1.393-1.499-1.499v-78.431h57.971Z"/><path class="cls-1" d="M862.356,1071.856c.502.515-.034,5.995-1.499,5.995h-49.475v29.973h44.478c1.527,0,1.763,4.568,1.499,5.995h-45.977v31.972h50.974v5.995h-56.472c-.106,0-1.499-1.393-1.499-1.499v-78.431h57.971Z"/><path class="cls-1" d="M1713.929,1071.856c.502.515-.034,5.995-1.499,5.995h-49.475v29.973h44.478c1.527,0,1.763,4.568,1.499,5.995h-45.977v31.972h50.974v5.995h-56.472c-.106,0-1.499-1.393-1.499-1.499v-78.431h57.971Z"/><path class="cls-1" d="M1354.11,1071.856c.502.515-.034,5.995-1.499,5.995h-48.476v29.973h44.977v5.995h-44.977v31.972h50.974v5.995h-57.971v-79.929c6.868,1.559,54.983-2.039,56.971,0Z"/><path class="cls-1" d="M1216.179,1071.856v49.956l48.421-49.011c2.744-1.803,6.379-.703,9.549-.935l-33.913,34.598,33.963,41.775.946,3.542-7.987-.499-32.488-39.441c-3.758,5.224-15.564,13.743-17.973,18.983-3.146,6.842,5.091,23.636-7.515,20.963v-79.929h6.996Z"/><path class="cls-1" d="M1505.923,1070.972l36.088,80.807c-2.176-.257-5.929.916-7.5-.985l-9.384-21.37c-1.368-1.821-39.842-.02-45.421-.459-5.277,1.818-6.854,26.928-17.645,22.815l35.863-80.333,7.999-.474ZM1482.046,1122.811h39.98l-20.479-42.968-19.501,42.968Z"/><path class="cls-1" d="M266.656,1151.78c-1.445-.087-3.113.278-4.495.005-4.667-.92-8.692-19.476-13.156-22.821-5.579.44-44.055-1.364-45.421.459-2.941,4.101-6.663,18.639-9.361,21.393-1.599,1.632-4.447.87-6.529.964l35.94-80.462c2.041-.73,6.152-1.151,7.547.53l35.475,79.931ZM246.665,1122.811l-19.49-43.971-20.49,43.971h39.98Z"/><path class="cls-1" d="M675.29,1071.025l36.142,80.755c-1.711-.045-3.663.304-5.306-.188-3.339-1-7.856-17.395-10.789-21.185-1.205-1.556-1.493-1.445-3.338-1.659-13.202-1.536-29.326,1.29-42.866.018-1.982.48-7.972,19.837-10.135,22.047-1.371,1.401-4.88,1.453-6.556.499l35.503-79.465c1.371-1.65,5.257-1.119,7.345-.822ZM691.442,1122.811l-19.49-43.971-20.49,43.971h39.98Z"/><path class="cls-1" d="M510.315,1070.14c11.137-1.396,24.311,1.908,32.182,10.209-1.125.803-3.473,4.179-4.464,4.257-.686.054-8.837-5.786-11.956-6.807-9.672-3.167-27.805-2.554-30.306,9.771-5.199,25.618,42.729,14.92,48.274,36.211,8.757,33.618-42.816,35.978-58.477,15.516,1.021-.75,3.705-4.313,4.464-4.318.751-.005,9.398,6.988,12.518,8.301,14.586,6.137,38.851,4.225,34.916-16.923-1.996-10.727-28.205-12.151-37.14-16.821-21.201-11.079-11.985-36.641,9.989-39.395Z"/><path class="cls-1" d="M1945.593,1070.137c13.553-1.569,27.096,2.967,36.183,13.209-5.66,7.745-6.248,1.904-11.637-1.337-29.744-17.888-59.884,7.603-51.614,39.604,5.72,22.133,30.184,32.079,49.971,20.374,4.379-2.59,8.823-9.952,12.363-4.717,2.109,3.119-5.17,7.755-7.736,9.341-14.998,9.269-35.22,8.81-48.768-2.85-26.374-22.697-14.264-69.515,21.239-73.625Z"/><path class="cls-1" d="M625.475,1071.856c.502.515-.034,5.995-1.499,5.995h-26.487v73.935h-6.996v-73.935h-26.487c-1.527,0-1.763-4.568-1.499-5.995h62.968Z"/><path class="cls-1" d="M780.398,1071.856v5.995h-26.986v72.436c0,1.765-5.582,1.668-6.996,1.499v-73.935h-26.487c-1.527,0-1.763-4.568-1.499-5.995h61.969Z"/><path class="cls-1" d="M296.64,1071.856v73.935h46.976v5.995h-52.474c-.106,0-1.499-1.393-1.499-1.499v-76.932c0-1.765,5.582-1.668,6.996-1.499Z"/><rect class="cls-1" x="1780.896" y="1071.856" width="5.997" height="79.929"/><rect class="cls-1" x="2001.78" y="1141.789" width="8.006" height="10.001"/></g></svg>